<svg xmlns="http://www.w3.org/2000/svg" version="1.1" width="3300" height="2000"><g id="Notes"><style>
    text {
      font-family: monospace;
      text-anchor: middle;
    }
    text.emphasis {
      font-weight:bold;
    }
    text.lanchor {
      text-anchor: start;
    }
  </style><rect height="2200" id="artboard" fill="white" width="3300" x="0" y="0"/><line id="" style="fill:none;stroke:black;stroke-width:0.5;" x1="263" x2="3036" y1="292" y2="292"/><text class="lanchor emphasis" transform="matrix(1 0 0 1 263 322)">Weight/Scale Variations</text><text transform="matrix(1 0 0 1 559.711 322)">Ultralight</text><text transform="matrix(1 0 0 1 856.422 322)">Thin</text><text transform="matrix(1 0 0 1 1153.13 322)">Light</text><text transform="matrix(1 0 0 1 1449.84 322)">Regular</text><text transform="matrix(1 0 0 1 1746.56 322)">Medium</text><text transform="matrix(1 0 0 1 2043.27 322)">Semibold</text><text transform="matrix(1 0 0 1 2339.98 322)">Bold</text><text transform="matrix(1 0 0 1 2636.69 322)">Heavy</text><text transform="matrix(1 0 0 1 2933.4 322)">Black</text><text id="template-version" style="text-anchor: end;" transform="matrix(1 0 0 1 3036 1933)">Template v.1.0</text><text class="lanchor" transform="matrix(1 0 0 1 263 726)">Small</text><text class="lanchor" transform="matrix(1 0 0 1 263 1156)">Medium</text><text class="lanchor" transform="matrix(1 0 0 1 263 1586)">Large</text></g><g id="Guides"><g id="H-reference" style="fill:#27AAE1;stroke:none;" transform="matrix(1 0 0 1 339 696)"><path d="M 54.9316 0 L 57.666 0 L 30.5664 -70.459 L 28.0762 -70.459 L 0.976562 0 L 3.66211 0 L 12.9395 -24.4629 L 45.7031 -24.4629 Z M 29.1992 -67.0898 L 29.4434 -67.0898 L 44.8242 -26.709 L 13.8184 -26.709 Z"/></g><line id="Baseline-S" style="fill:none;stroke:#27AAE1;opacity:1;stroke-width:0.577;" x1="263" x2="3036" y1="696" y2="696"/><line id="Capline-S" style="fill:none;stroke:#27AAE1;opacity:1;stroke-width:0.577;" x1="263" x2="3036" y1="625.541" y2="625.541"/><g id="H-reference" style="fill:#27AAE1;stroke:none;" transform="matrix(1 0 0 1 339 1126)"><path d="M 54.9316 0 L 57.666 0 L 30.5664 -70.459 L 28.0762 -70.459 L 0.976562 0 L 3.66211 0 L 12.9395 -24.4629 L 45.7031 -24.4629 Z M 29.1992 -67.0898 L 29.4434 -67.0898 L 44.8242 -26.709 L 13.8184 -26.709 Z"/></g><line id="Baseline-M" style="fill:none;stroke:#27AAE1;opacity:1;stroke-width:0.577;" x1="263" x2="3036" y1="1126" y2="1126"/><line id="Capline-M" style="fill:none;stroke:#27AAE1;opacity:1;stroke-width:0.577;" x1="263" x2="3036" y1="1055.54" y2="1055.54"/><g id="H-reference" style="fill:#27AAE1;stroke:none;" transform="matrix(1 0 0 1 339 1556)"><path d="M 54.9316 0 L 57.666 0 L 30.5664 -70.459 L 28.0762 -70.459 L 0.976562 0 L 3.66211 0 L 12.9395 -24.4629 L 45.7031 -24.4629 Z M 29.1992 -67.0898 L 29.4434 -67.0898 L 44.8242 -26.709 L 13.8184 -26.709 Z"/></g><line id="Baseline-L" style="fill:none;stroke:#27AAE1;opacity:1;stroke-width:0.577;" x1="263" x2="3036" y1="1556" y2="1556"/><line id="Capline-L" style="fill:none;stroke:#27AAE1;opacity:1;stroke-width:0.577;" x1="263" x2="3036" y1="1485.54" y2="1485.54"/><rect height="119.336" id="left-margin" style="fill:darkred;stroke:none;opacity:0.4;" width="12.4512" x="1394.06" y="1030.79"/><rect height="119.336" id="right-margin" style="fill:darkgreen;stroke:none;opacity:0.4;" width="12.4512" x="1502.5112" y="1030.79"/><rect x="1406.5112" y="1045" width="96" height="96" fill="none" stroke="blue" stroke-dasharray="5"/><rect x="1394.06" y="1030.79" width="120.9024" height="119.336" fill="none" stroke="blue"/></g><g id="Symbols"><g id="Bold-L" transform="matrix(1 0 0 1 2266 1556)"><path d="M73.046 -2.012 H82.721 V-9.269 H90.461 Q92.88 -9.269 94.412 -11.204 Q95.944 -13.139 95.944 -15.557 V-34.06 Q95.944 -36.681 94.412 -38.536 Q92.88 -40.39 90.461 -40.39 H68.531 V-51.516 H95.944 V-61.191 H82.721 V-68.447 H73.046 V-61.191 H65.145 Q62.726 -61.191 60.791 -59.256 Q58.856 -57.321 58.856 -54.722 V-36.378 Q58.856 -33.779 60.791 -32.247 Q62.726 -30.715 65.145 -30.715 H86.269 V-18.944 H58.856 V-9.269 H73.046 V-2.012 Z M24.026 20.401 Q17.729 20.401 13.299 15.971 Q8.869 11.541 8.869 5.244 V-75.704 Q8.869 -82.067 13.299 -86.545 Q17.729 -91.022 24.026 -91.022 H130.774 Q137.137 -91.022 141.615 -86.545 Q146.093 -82.067 146.093 -75.704 V5.244 Q146.093 11.541 141.615 15.971 Q137.137 20.401 130.774 20.401 H24.026 Z M24.026 5.244 H130.774 Q130.774 5.244 130.774 5.244 Q130.774 5.244 130.774 5.244 V-75.704 Q130.774 -75.704 130.774 -75.704 Q130.774 -75.704 130.774 -75.704 H24.026 Q24.026 -75.704 24.026 -75.704 Q24.026 -75.704 24.026 -75.704 V5.244 Q24.026 5.244 24.026 5.244 Q24.026 5.244 24.026 5.244 Z"/></g><g id="Semibold-L" transform="matrix(1 0 0 1 1970.27 1556)"><path d="M73.046 -2.012 H82.721 V-9.269 H90.461 Q92.88 -9.269 94.412 -11.204 Q95.944 -13.139 95.944 -15.557 V-34.06 Q95.944 -36.681 94.412 -38.536 Q92.88 -40.39 90.461 -40.39 H68.531 V-51.516 H95.944 V-61.191 H82.721 V-68.447 H73.046 V-61.191 H65.145 Q62.726 -61.191 60.791 -59.256 Q58.856 -57.321 58.856 -54.722 V-36.378 Q58.856 -33.779 60.791 -32.247 Q62.726 -30.715 65.145 -30.715 H86.269 V-18.944 H58.856 V-9.269 H73.046 V-2.012 Z M23.395 18.649 Q18.154 18.649 14.388 14.882 Q10.621 11.116 10.621 5.875 V-76.335 Q10.621 -81.614 14.388 -85.407 Q18.154 -89.2 23.395 -89.2 H131.405 Q136.684 -89.2 140.477 -85.407 Q144.27 -81.614 144.27 -76.335 V5.875 Q144.27 11.116 140.477 14.882 Q136.684 18.649 131.405 18.649 H23.395 Z M23.395 5.875 H131.405 Q131.405 5.875 131.405 5.875 Q131.405 5.875 131.405 5.875 V-76.335 Q131.405 -76.335 131.405 -76.335 Q131.405 -76.335 131.405 -76.335 H23.395 Q23.395 -76.335 23.395 -76.335 Q23.395 -76.335 23.395 -76.335 V5.875 Q23.395 5.875 23.395 5.875 Q23.395 5.875 23.395 5.875 Z"/></g><g id="Medium-L" transform="matrix(1 0 0 1 1674.31 1556)"><path d="M73.046 -2.012 H82.721 V-9.269 H90.461 Q92.88 -9.269 94.412 -11.204 Q95.944 -13.139 95.944 -15.557 V-34.06 Q95.944 -36.681 94.412 -38.536 Q92.88 -40.39 90.461 -40.39 H68.531 V-51.516 H95.944 V-61.191 H82.721 V-68.447 H73.046 V-61.191 H65.145 Q62.726 -61.191 60.791 -59.256 Q58.856 -57.321 58.856 -54.722 V-36.378 Q58.856 -33.779 60.791 -32.247 Q62.726 -30.715 65.145 -30.715 H86.269 V-18.944 H58.856 V-9.269 H73.046 V-2.012 Z M22.922 17.334 Q18.472 17.334 15.204 14.066 Q11.936 10.798 11.936 6.348 V-76.808 Q11.936 -81.274 15.204 -84.553 Q18.472 -87.833 22.922 -87.833 H131.878 Q136.344 -87.833 139.623 -84.553 Q142.903 -81.274 142.903 -76.808 V6.348 Q142.903 10.798 139.623 14.066 Q136.344 17.334 131.878 17.334 H22.922 Z M22.922 6.348 H131.878 Q131.878 6.348 131.878 6.348 Q131.878 6.348 131.878 6.348 V-76.808 Q131.878 -76.808 131.878 -76.808 Q131.878 -76.808 131.878 -76.808 H22.922 Q22.922 -76.808 22.922 -76.808 Q22.922 -76.808 22.922 -76.808 V6.348 Q22.922 6.348 22.922 6.348 Q22.922 6.348 22.922 6.348 Z"/></g><g id="Regular-L" transform="matrix(1 0 0 1 1378.56 1556)"><path d="M73.046 -2.012 H82.721 V-9.269 H90.461 Q92.88 -9.269 94.412 -11.204 Q95.944 -13.139 95.944 -15.557 V-34.06 Q95.944 -36.681 94.412 -38.536 Q92.88 -40.39 90.461 -40.39 H68.531 V-51.516 H95.944 V-61.191 H82.721 V-68.447 H73.046 V-61.191 H65.145 Q62.726 -61.191 60.791 -59.256 Q58.856 -57.321 58.856 -54.722 V-36.378 Q58.856 -33.779 60.791 -32.247 Q62.726 -30.715 65.145 -30.715 H86.269 V-18.944 H58.856 V-9.269 H73.046 V-2.012 Z M22.575 16.37 Q18.705 16.37 15.803 13.468 Q12.9 10.565 12.9 6.695 V-77.155 Q12.9 -81.025 15.803 -83.927 Q18.705 -86.83 22.575 -86.83 H132.225 Q136.095 -86.83 138.998 -83.927 Q141.9 -81.025 141.9 -77.155 V6.695 Q141.9 10.565 138.998 13.468 Q136.095 16.37 132.225 16.37 H22.575 Z M22.575 6.695 H132.225 Q132.225 6.695 132.225 6.695 Q132.225 6.695 132.225 6.695 V-77.155 Q132.225 -77.155 132.225 -77.155 Q132.225 -77.155 132.225 -77.155 H22.575 Q22.575 -77.155 22.575 -77.155 Q22.575 -77.155 22.575 -77.155 V6.695 Q22.575 6.695 22.575 6.695 Q22.575 6.695 22.575 6.695 Z"/></g><g id="Light-L" transform="matrix(1 0 0 1 1082.77 1556)"><path d="M74.101 -3.873 H81.419 V-10.943 H89.531 Q91.771 -10.943 93.175 -12.63 Q94.579 -14.317 94.579 -16.467 V-33.523 Q94.579 -35.875 93.175 -37.512 Q91.771 -39.15 89.531 -39.15 H67.601 V-52.198 H94.579 V-59.517 H81.419 V-66.587 H74.101 V-59.517 H65.827 Q63.657 -59.517 61.97 -57.83 Q60.283 -56.143 60.283 -53.813 V-36.915 Q60.283 -34.585 61.97 -33.208 Q63.657 -31.831 65.827 -31.831 H87.261 V-18.262 H60.283 V-10.943 H74.101 V-3.873 Z M25.428 13.145 Q21.634 13.145 18.88 10.39 Q16.125 7.636 16.125 3.842 V-74.302 Q16.125 -78.096 18.88 -80.85 Q21.634 -83.605 25.428 -83.605 H129.372 Q133.166 -83.605 135.92 -80.85 Q138.675 -78.096 138.675 -74.302 V3.842 Q138.675 7.636 135.92 10.39 Q133.166 13.145 129.372 13.145 H25.428 Z M25.428 5.827 H129.372 Q130.116 5.827 130.737 5.207 Q131.357 4.586 131.357 3.842 V-74.302 Q131.357 -75.046 130.737 -75.667 Q130.116 -76.287 129.372 -76.287 H25.428 Q24.684 -76.287 24.063 -75.667 Q23.443 -75.046 23.443 -74.302 V3.842 Q23.443 4.586 24.063 5.207 Q24.684 5.827 25.428 5.827 Z"/></g><g id="Thin-L" transform="matrix(1 0 0 1 787.282 1556)"><path d="M75.155 -5.734 H80.116 V-12.618 H88.601 Q90.663 -12.618 91.939 -14.057 Q93.215 -15.495 93.215 -17.376 V-32.986 Q93.215 -35.069 91.939 -36.489 Q90.663 -37.909 88.601 -37.909 H66.671 V-52.881 H93.215 V-57.842 H80.116 V-64.726 H75.155 V-57.842 H66.509 Q64.587 -57.842 63.148 -56.403 Q61.709 -54.965 61.709 -52.904 V-37.452 Q61.709 -35.391 63.148 -34.169 Q64.587 -32.948 66.509 -32.948 H88.253 V-17.579 H61.709 V-12.618 H75.155 V-5.734 Z M28.281 9.92 Q24.563 9.92 21.956 7.314 Q19.35 4.707 19.35 0.989 V-71.449 Q19.35 -75.167 21.956 -77.774 Q24.563 -80.38 28.281 -80.38 H126.519 Q130.237 -80.38 132.844 -77.774 Q135.45 -75.167 135.45 -71.449 V0.989 Q135.45 4.707 132.844 7.314 Q130.237 9.92 126.519 9.92 H28.281 Z M28.281 4.958 H126.519 Q128.008 4.958 129.248 3.718 Q130.488 2.478 130.488 0.989 V-71.449 Q130.488 -72.938 129.248 -74.178 Q128.008 -75.418 126.519 -75.418 H28.281 Q26.792 -75.418 25.552 -74.178 Q24.312 -72.938 24.312 -71.449 V0.989 Q24.312 2.478 25.552 3.718 Q26.792 4.958 28.281 4.958 Z"/></g><g id="Ultralight-L" transform="matrix(1 0 0 1 491.205 1556)"><path d="M75.788 -6.85 H79.335 V-13.622 H88.043 Q89.998 -13.622 91.197 -14.912 Q92.396 -16.202 92.396 -17.922 V-32.663 Q92.396 -34.585 91.197 -35.875 Q89.998 -37.165 88.043 -37.165 H66.112 V-53.29 H92.396 V-56.837 H79.335 V-63.61 H75.788 V-56.837 H66.919 Q65.145 -56.837 63.855 -55.547 Q62.565 -54.257 62.565 -52.358 V-37.774 Q62.565 -35.875 63.855 -34.746 Q65.145 -33.617 66.919 -33.617 H88.849 V-17.17 H62.565 V-13.622 H75.788 V-6.85 Z M29.992 7.985 Q26.32 7.985 23.803 5.467 Q21.285 2.95 21.285 -0.722 V-69.737 Q21.285 -73.41 23.803 -75.928 Q26.32 -78.445 29.992 -78.445 H124.808 Q128.48 -78.445 130.998 -75.928 Q133.515 -73.41 133.515 -69.737 V-0.722 Q133.515 2.95 130.998 5.467 Q128.48 7.985 124.808 7.985 H29.992 Z M29.992 4.438 H124.808 Q126.743 4.438 128.355 2.825 Q129.968 1.213 129.968 -0.722 V-69.737 Q129.968 -71.672 128.355 -73.285 Q126.743 -74.897 124.808 -74.897 H29.992 Q28.058 -74.897 26.445 -73.285 Q24.832 -71.672 24.832 -69.737 V-0.722 Q24.832 1.213 26.445 2.825 Q28.058 4.438 29.992 4.438 Z"/></g><g id="Bold-M" transform="matrix(1 0 0 1 2281.8 1126)"><path d="M55 -10.23 H65 V-15.23 H70 Q72.125 -15.23 73.562 -16.667 Q75 -18.105 75 -20.23 V-35.23 Q75 -37.355 73.562 -38.792 Q72.125 -40.23 70 -40.23 H55 V-45.23 H75 V-55.23 H65 V-60.23 H55 V-55.23 H50 Q47.875 -55.23 46.438 -53.792 Q45 -52.355 45 -50.23 V-35.23 Q45 -33.105 46.438 -31.667 Q47.875 -30.23 50 -30.23 H65 V-25.23 H45 V-15.23 H55 V-10.23 Z M21.5 9.02 Q14.875 9.02 10.312 4.458 Q5.75 -0.105 5.75 -6.73 V-63.73 Q5.75 -70.355 10.312 -74.917 Q14.875 -79.48 21.5 -79.48 H98.5 Q105.125 -79.48 109.688 -74.917 Q114.25 -70.355 114.25 -63.73 V-6.73 Q114.25 -0.105 109.688 4.458 Q105.125 9.02 98.5 9.02 H21.5 Z M21.5 -6.73 H98.5 Q98.5 -6.73 98.5 -6.73 Q98.5 -6.73 98.5 -6.73 V-63.73 Q98.5 -63.73 98.5 -63.73 Q98.5 -63.73 98.5 -63.73 H21.5 Q21.5 -63.73 21.5 -63.73 Q21.5 -63.73 21.5 -63.73 V-6.73 Q21.5 -6.73 21.5 -6.73 Q21.5 -6.73 21.5 -6.73 Z"/></g><g id="Semibold-M" transform="matrix(1 0 0 1 1985.97 1126)"><path d="M55 -10.23 H65 V-15.23 H70 Q72.125 -15.23 73.562 -16.667 Q75 -18.105 75 -20.23 V-35.23 Q75 -37.355 73.562 -38.792 Q72.125 -40.23 70 -40.23 H55 V-45.23 H75 V-55.23 H65 V-60.23 H55 V-55.23 H50 Q47.875 -55.23 46.438 -53.792 Q45 -52.355 45 -50.23 V-35.23 Q45 -33.105 46.438 -31.667 Q47.875 -30.23 50 -30.23 H65 V-25.23 H45 V-15.23 H55 V-10.23 Z M20.848 7.172 Q15.31 7.172 11.454 3.316 Q7.598 -0.54 7.598 -6.078 V-64.382 Q7.598 -69.92 11.454 -73.776 Q15.31 -77.632 20.848 -77.632 H99.152 Q104.69 -77.632 108.546 -73.776 Q112.402 -69.92 112.402 -64.382 V-6.078 Q112.402 -0.54 108.546 3.316 Q104.69 7.172 99.152 7.172 H20.848 Z M20.848 -6.078 H99.152 Q99.152 -6.078 99.152 -6.078 Q99.152 -6.078 99.152 -6.078 V-64.382 Q99.152 -64.382 99.152 -64.382 Q99.152 -64.382 99.152 -64.382 H20.848 Q20.848 -64.382 20.848 -64.382 Q20.848 -64.382 20.848 -64.382 V-6.078 Q20.848 -6.078 20.848 -6.078 Q20.848 -6.078 20.848 -6.078 Z"/></g><g id="Medium-M" transform="matrix(1 0 0 1 1689.91 1126)"><path d="M55 -10.23 H65 V-15.23 H70 Q72.125 -15.23 73.562 -16.667 Q75 -18.105 75 -20.23 V-35.23 Q75 -37.355 73.562 -38.792 Q72.125 -40.23 70 -40.23 H55 V-45.23 H75 V-55.23 H65 V-60.23 H55 V-55.23 H50 Q47.875 -55.23 46.438 -53.792 Q45 -52.355 45 -50.23 V-35.23 Q45 -33.105 46.438 -31.667 Q47.875 -30.23 50 -30.23 H65 V-25.23 H45 V-15.23 H55 V-10.23 Z M20.359 5.786 Q15.636 5.786 12.31 2.46 Q8.984 -0.866 8.984 -5.589 V-64.871 Q8.984 -69.594 12.31 -72.92 Q15.636 -76.246 20.359 -76.246 H99.641 Q104.364 -76.246 107.69 -72.92 Q111.016 -69.594 111.016 -64.871 V-5.589 Q111.016 -0.866 107.69 2.46 Q104.364 5.786 99.641 5.786 H20.359 Z M20.359 -5.589 H99.641 Q99.641 -5.589 99.641 -5.589 Q99.641 -5.589 99.641 -5.589 V-64.871 Q99.641 -64.871 99.641 -64.871 Q99.641 -64.871 99.641 -64.871 H20.359 Q20.359 -64.871 20.359 -64.871 Q20.359 -64.871 20.359 -64.871 V-5.589 Q20.359 -5.589 20.359 -5.589 Q20.359 -5.589 20.359 -5.589 Z"/></g><g id="Regular-M" transform="matrix(1 0 0 1 1394.06 1126)"><path d="M55 -10.23 H65 V-15.23 H70 Q72.125 -15.23 73.562 -16.667 Q75 -18.105 75 -20.23 V-35.23 Q75 -37.355 73.562 -38.792 Q72.125 -40.23 70 -40.23 H55 V-45.23 H75 V-55.23 H65 V-60.23 H55 V-55.23 H50 Q47.875 -55.23 46.438 -53.792 Q45 -52.355 45 -50.23 V-35.23 Q45 -33.105 46.438 -31.667 Q47.875 -30.23 50 -30.23 H65 V-25.23 H45 V-15.23 H55 V-10.23 Z M20 4.77 Q15.875 4.77 12.938 1.833 Q10 -1.105 10 -5.23 V-65.23 Q10 -69.355 12.938 -72.292 Q15.875 -75.23 20 -75.23 H100 Q104.125 -75.23 107.062 -72.292 Q110 -69.355 110 -65.23 V-5.23 Q110 -1.105 107.062 1.833 Q104.125 4.77 100 4.77 H20 Z M20 -5.23 H100 Q100 -5.23 100 -5.23 Q100 -5.23 100 -5.23 V-65.23 Q100 -65.23 100 -65.23 Q100 -65.23 100 -65.23 H20 Q20 -65.23 20 -65.23 Q20 -65.23 20 -65.23 V-5.23 Q20 -5.23 20 -5.23 Q20 -5.23 20 -5.23 Z"/></g><g id="Light-M" transform="matrix(1 0 0 1 1098.18 1126)"><path d="M56.25 -11.48 H63.75 V-16.48 H69.327 Q71.212 -16.48 72.481 -17.749 Q73.75 -19.018 73.75 -20.903 V-34.557 Q73.75 -36.441 72.481 -37.711 Q71.212 -38.98 69.327 -38.98 H53.75 V-46.48 H73.75 V-53.98 H63.75 V-58.98 H56.25 V-53.98 H50.673 Q48.788 -53.98 47.519 -52.711 Q46.25 -51.441 46.25 -49.557 V-35.903 Q46.25 -34.018 47.519 -32.749 Q48.788 -31.48 50.673 -31.48 H66.25 V-23.98 H46.25 V-16.48 H56.25 V-11.48 Z M21.539 2.27 Q17.75 2.27 15.125 -0.355 Q12.5 -2.98 12.5 -6.769 V-63.691 Q12.5 -67.48 15.125 -70.105 Q17.75 -72.73 21.539 -72.73 H98.461 Q102.25 -72.73 104.875 -70.105 Q107.5 -67.48 107.5 -63.691 V-6.769 Q107.5 -2.98 104.875 -0.355 Q102.25 2.27 98.461 2.27 H21.539 Z M21.539 -5.23 H98.461 Q99.038 -5.23 99.519 -5.711 Q100 -6.192 100 -6.769 V-63.691 Q100 -64.268 99.519 -64.749 Q99.038 -65.23 98.461 -65.23 H21.539 Q20.962 -65.23 20.481 -64.749 Q20 -64.268 20 -63.691 V-6.769 Q20 -6.192 20.481 -5.711 Q20.962 -5.23 21.539 -5.23 Z"/></g><g id="Thin-M" transform="matrix(1 0 0 1 802.565 1126)"><path d="M57.5 -12.73 H62.5 V-17.73 H68.654 Q70.298 -17.73 71.399 -18.831 Q72.5 -19.932 72.5 -21.576 V-33.884 Q72.5 -35.528 71.399 -36.629 Q70.298 -37.73 68.654 -37.73 H52.5 V-47.73 H72.5 V-52.73 H62.5 V-57.73 H57.5 V-52.73 H51.346 Q49.702 -52.73 48.601 -51.629 Q47.5 -50.528 47.5 -48.884 V-36.576 Q47.5 -34.932 48.601 -33.831 Q49.702 -32.73 51.346 -32.73 H67.5 V-22.73 H47.5 V-17.73 H57.5 V-12.73 Z M23.077 -0.23 Q19.625 -0.23 17.312 -2.542 Q15 -4.855 15 -8.307 V-62.153 Q15 -65.605 17.312 -67.917 Q19.625 -70.23 23.077 -70.23 H96.923 Q100.375 -70.23 102.688 -67.917 Q105 -65.605 105 -62.153 V-8.307 Q105 -4.855 102.688 -2.542 Q100.375 -0.23 96.923 -0.23 H23.077 Z M23.077 -5.23 H96.923 Q98.077 -5.23 99.038 -6.191 Q100 -7.153 100 -8.307 V-62.153 Q100 -63.307 99.038 -64.268 Q98.077 -65.23 96.923 -65.23 H23.077 Q21.923 -65.23 20.962 -64.268 Q20 -63.307 20 -62.153 V-8.307 Q20 -7.153 20.962 -6.191 Q21.923 -5.23 23.077 -5.23 Z"/></g><g id="Ultralight-M" transform="matrix(1 0 0 1 506.415 1126)"><path d="M58.25 -13.48 H61.75 V-18.48 H68.25 Q69.75 -18.48 70.75 -19.48 Q71.75 -20.48 71.75 -21.98 V-33.48 Q71.75 -34.98 70.75 -35.98 Q69.75 -36.98 68.25 -36.98 H51.75 V-48.48 H71.75 V-51.98 H61.75 V-56.98 H58.25 V-51.98 H51.75 Q50.25 -51.98 49.25 -50.98 Q48.25 -49.98 48.25 -48.48 V-36.98 Q48.25 -35.48 49.25 -34.48 Q50.25 -33.48 51.75 -33.48 H68.25 V-21.98 H48.25 V-18.48 H58.25 V-13.48 Z M24 -1.73 Q20.75 -1.73 18.625 -3.855 Q16.5 -5.98 16.5 -9.23 V-61.23 Q16.5 -64.48 18.625 -66.605 Q20.75 -68.73 24 -68.73 H96 Q99.25 -68.73 101.375 -66.605 Q103.5 -64.48 103.5 -61.23 V-9.23 Q103.5 -5.98 101.375 -3.855 Q99.25 -1.73 96 -1.73 H24 Z M24 -5.23 H96 Q97.5 -5.23 98.75 -6.48 Q100 -7.73 100 -9.23 V-61.23 Q100 -62.73 98.75 -63.98 Q97.5 -65.23 96 -65.23 H24 Q22.5 -65.23 21.25 -63.98 Q20 -62.73 20 -61.23 V-9.23 Q20 -7.73 21.25 -6.48 Q22.5 -5.23 24 -5.23 Z"/></g><g id="Bold-S" transform="matrix(1 0 0 1 2294.23 696)"><path d="M44.973 -18.661 H49.707 V-23.395 H52.074 Q54.086 -23.395 55.447 -24.756 Q56.808 -26.117 56.808 -28.129 V-32.863 Q56.808 -34.875 55.447 -36.236 Q54.086 -37.597 52.074 -37.597 H42.606 V-42.331 H56.808 V-47.065 H49.707 V-51.799 H44.973 V-47.065 H42.606 Q40.594 -47.065 39.233 -45.704 Q37.872 -44.343 37.872 -42.331 V-37.597 Q37.872 -35.585 39.233 -34.224 Q40.594 -32.863 42.606 -32.863 H52.074 V-28.129 H37.872 V-23.395 H44.973 V-18.661 Z M17.753 -3.473 Q12.851 -3.473 9.483 -6.842 Q6.115 -10.211 6.115 -15.114 V-55.377 Q6.115 -60.281 9.483 -63.634 Q12.851 -66.987 17.753 -66.987 H76.928 Q81.829 -66.987 85.197 -63.618 Q88.565 -60.249 88.565 -55.346 V-15.083 Q88.565 -10.179 85.197 -6.826 Q81.829 -3.473 76.928 -3.473 H17.753 Z M17.753 -15.11 H76.928 Q76.928 -15.11 76.928 -15.11 Q76.928 -15.11 76.928 -15.11 V-55.349 Q76.928 -55.349 76.928 -55.349 Q76.928 -55.349 76.928 -55.349 H17.753 Q17.753 -55.349 17.753 -55.349 Q17.753 -55.349 17.753 -55.349 V-15.11 Q17.753 -15.11 17.753 -15.11 Q17.753 -15.11 17.753 -15.11 Z"/></g><g id="Semibold-S" transform="matrix(1 0 0 1 1998.1 696)"><path d="M44.973 -18.661 H49.707 V-23.395 H52.074 Q54.086 -23.395 55.447 -24.756 Q56.808 -26.117 56.808 -28.129 V-32.863 Q56.808 -34.875 55.447 -36.236 Q54.086 -37.597 52.074 -37.597 H42.606 V-42.331 H56.808 V-47.065 H49.707 V-51.799 H44.973 V-47.065 H42.606 Q40.594 -47.065 39.233 -45.704 Q37.872 -44.343 37.872 -42.331 V-37.597 Q37.872 -35.585 39.233 -34.224 Q40.594 -32.863 42.606 -32.863 H52.074 V-28.129 H37.872 V-23.395 H44.973 V-18.661 Z M17.238 -4.931 Q13.194 -4.931 10.383 -7.742 Q7.573 -10.554 7.573 -14.6 V-55.892 Q7.573 -59.938 10.383 -62.734 Q13.194 -65.529 17.238 -65.529 H77.442 Q81.486 -65.529 84.297 -62.718 Q87.107 -59.906 87.107 -55.86 V-14.568 Q87.107 -10.522 84.297 -7.726 Q81.486 -4.931 77.442 -4.931 H17.238 Z M17.238 -14.596 H77.442 Q77.442 -14.596 77.442 -14.596 Q77.442 -14.596 77.442 -14.596 V-55.864 Q77.442 -55.864 77.442 -55.864 Q77.442 -55.864 77.442 -55.864 H17.238 Q17.238 -55.864 17.238 -55.864 Q17.238 -55.864 17.238 -55.864 V-14.596 Q17.238 -14.596 17.238 -14.596 Q17.238 -14.596 17.238 -14.596 Z"/></g><g id="Medium-S" transform="matrix(1 0 0 1 1701.85 696)"><path d="M44.973 -18.661 H49.707 V-23.395 H52.074 Q54.086 -23.395 55.447 -24.756 Q56.808 -26.117 56.808 -28.129 V-32.863 Q56.808 -34.875 55.447 -36.236 Q54.086 -37.597 52.074 -37.597 H42.606 V-42.331 H56.808 V-47.065 H49.707 V-51.799 H44.973 V-47.065 H42.606 Q40.594 -47.065 39.233 -45.704 Q37.872 -44.343 37.872 -42.331 V-37.597 Q37.872 -35.585 39.233 -34.224 Q40.594 -32.863 42.606 -32.863 H52.074 V-28.129 H37.872 V-23.395 H44.973 V-18.661 Z M16.852 -6.024 Q13.451 -6.024 11.059 -8.418 Q8.666 -10.812 8.666 -14.214 V-56.278 Q8.666 -59.68 11.059 -62.058 Q13.451 -64.436 16.852 -64.436 H77.828 Q81.229 -64.436 83.621 -62.042 Q86.014 -59.648 86.014 -56.246 V-14.182 Q86.014 -10.78 83.621 -8.402 Q81.229 -6.024 77.828 -6.024 H16.852 Z M16.852 -14.21 H77.828 Q77.828 -14.21 77.828 -14.21 Q77.828 -14.21 77.828 -14.21 V-56.25 Q77.828 -56.25 77.828 -56.25 Q77.828 -56.25 77.828 -56.25 H16.852 Q16.852 -56.25 16.852 -56.25 Q16.852 -56.25 16.852 -56.25 V-14.21 Q16.852 -14.21 16.852 -14.21 Q16.852 -14.21 16.852 -14.21 Z"/></g><g id="Regular-S" transform="matrix(1 0 0 1 1405.73 696)"><path d="M44.973 -18.661 H49.707 V-23.395 H52.074 Q54.086 -23.395 55.447 -24.756 Q56.808 -26.117 56.808 -28.129 V-32.863 Q56.808 -34.875 55.447 -36.236 Q54.086 -37.597 52.074 -37.597 H42.606 V-42.331 H56.808 V-47.065 H49.707 V-51.799 H44.973 V-47.065 H42.606 Q40.594 -47.065 39.233 -45.704 Q37.872 -44.343 37.872 -42.331 V-37.597 Q37.872 -35.585 39.233 -34.224 Q40.594 -32.863 42.606 -32.863 H52.074 V-28.129 H37.872 V-23.395 H44.973 V-18.661 Z M16.569 -6.826 Q13.64 -6.826 11.554 -8.913 Q9.468 -11 9.468 -13.931 V-56.561 Q9.468 -59.492 11.554 -61.563 Q13.64 -63.634 16.569 -63.634 H78.111 Q81.04 -63.634 83.126 -61.547 Q85.212 -59.46 85.212 -56.529 V-13.899 Q85.212 -10.968 83.126 -8.897 Q81.04 -6.826 78.111 -6.826 H16.569 Z M16.569 -13.927 H78.111 Q78.111 -13.927 78.111 -13.927 Q78.111 -13.927 78.111 -13.927 V-56.533 Q78.111 -56.533 78.111 -56.533 Q78.111 -56.533 78.111 -56.533 H16.569 Q16.569 -56.533 16.569 -56.533 Q16.569 -56.533 16.569 -56.533 V-13.927 Q16.569 -13.927 16.569 -13.927 Q16.569 -13.927 16.569 -13.927 Z"/></g><g id="Light-S" transform="matrix(1 0 0 1 1109.75 696)"><path d="M45.959 -19.647 H48.721 V-24.381 H51.543 Q53.365 -24.381 54.593 -25.61 Q55.822 -26.838 55.822 -28.66 V-32.332 Q55.822 -34.154 54.593 -35.382 Q53.365 -36.611 51.543 -36.611 H41.62 V-43.317 H55.822 V-46.079 H48.721 V-50.813 H45.959 V-46.079 H43.137 Q41.315 -46.079 40.087 -44.85 Q38.858 -43.622 38.858 -41.8 V-38.128 Q38.858 -36.306 40.087 -35.078 Q41.315 -33.849 43.137 -33.849 H53.06 V-27.143 H38.858 V-24.381 H45.959 V-19.647 Z M17.783 -8.799 Q15.119 -8.799 13.28 -10.639 Q11.441 -12.48 11.441 -15.145 V-55.347 Q11.441 -58.012 13.28 -59.837 Q15.119 -61.661 17.783 -61.661 H76.897 Q79.561 -61.661 81.4 -59.821 Q83.239 -57.98 83.239 -55.315 V-15.113 Q83.239 -12.448 81.4 -10.623 Q79.561 -8.799 76.897 -8.799 H17.783 Z M17.783 -13.927 H76.897 Q77.352 -13.927 77.732 -14.306 Q78.111 -14.686 78.111 -15.141 V-55.319 Q78.111 -55.774 77.732 -56.154 Q77.352 -56.533 76.897 -56.533 H17.783 Q17.328 -56.533 16.948 -56.154 Q16.569 -55.774 16.569 -55.319 V-15.141 Q16.569 -14.686 16.948 -14.306 Q17.328 -13.927 17.783 -13.927 Z"/></g><g id="Thin-S" transform="matrix(1 0 0 1 814.015 696)"><path d="M46.946 -20.633 H47.735 V-25.367 H51.012 Q52.645 -25.367 53.74 -26.463 Q54.836 -27.558 54.836 -29.191 V-31.801 Q54.836 -33.434 53.74 -34.529 Q52.645 -35.624 51.012 -35.624 H40.634 V-44.303 H54.836 V-45.092 H47.735 V-49.826 H46.946 V-45.092 H43.668 Q42.035 -45.092 40.94 -43.997 Q39.845 -42.902 39.845 -41.269 V-38.659 Q39.845 -37.026 40.94 -35.931 Q42.035 -34.835 43.668 -34.835 H54.047 V-26.156 H39.845 V-25.367 H46.946 V-20.633 Z M18.997 -10.771 Q16.599 -10.771 15.006 -12.365 Q13.413 -13.959 13.413 -16.359 V-54.133 Q13.413 -56.533 15.006 -58.111 Q16.599 -59.689 18.997 -59.689 H75.683 Q78.081 -59.689 79.674 -58.095 Q81.267 -56.501 81.267 -54.101 V-16.327 Q81.267 -13.927 79.674 -12.349 Q78.081 -10.771 75.683 -10.771 H18.997 Z M18.997 -13.927 H75.683 Q76.594 -13.927 77.352 -14.686 Q78.111 -15.444 78.111 -16.355 V-54.105 Q78.111 -55.016 77.352 -55.774 Q76.594 -56.533 75.683 -56.533 H18.997 Q18.086 -56.533 17.328 -55.774 Q16.569 -55.016 16.569 -54.105 V-16.355 Q16.569 -15.444 17.328 -14.686 Q18.086 -13.927 18.997 -13.927 Z"/></g><g id="Ultralight-S" transform="matrix(1 0 0 1 517.792 696)"><path d="M47.537 -21.225 H47.143 V-25.959 H50.693 Q52.212 -25.959 53.228 -26.975 Q54.244 -27.991 54.244 -29.51 V-31.482 Q54.244 -33.001 53.228 -34.017 Q52.212 -35.033 50.693 -35.033 H40.042 V-44.895 H54.244 V-44.501 H47.143 V-49.235 H47.537 V-44.501 H43.987 Q42.468 -44.501 41.452 -43.485 Q40.436 -42.469 40.436 -40.95 V-38.978 Q40.436 -37.459 41.452 -36.443 Q42.468 -35.427 43.987 -35.427 H54.638 V-25.565 H40.436 V-25.959 H47.537 V-21.225 Z M19.725 -11.954 Q17.486 -11.954 16.041 -13.401 Q14.597 -14.847 14.597 -17.087 V-53.405 Q14.597 -55.645 16.041 -57.075 Q17.486 -58.505 19.725 -58.505 H74.955 Q77.194 -58.505 78.639 -57.059 Q80.084 -55.613 80.084 -53.373 V-17.055 Q80.084 -14.815 78.639 -13.385 Q77.194 -11.954 74.955 -11.954 H19.725 Z M19.725 -13.927 H74.955 Q76.139 -13.927 77.125 -14.913 Q78.111 -15.899 78.111 -17.083 V-53.377 Q78.111 -54.56 77.125 -55.547 Q76.139 -56.533 74.955 -56.533 H19.725 Q18.541 -56.533 17.555 -55.547 Q16.569 -54.56 16.569 -53.377 V-17.083 Q16.569 -15.899 17.555 -14.913 Q18.541 -13.927 19.725 -13.927 Z"/></g></g></svg>